<svg width="30" height="30" viewBox="0 0 30 30" fill="none" xmlns="http://www.w3.org/2000/svg">
<rect x="0.5" y="0.5" width="29" height="29" rx="2.5" stroke="#C3C6C9"/>
<path fill-rule="evenodd" clip-rule="evenodd" d="M11.3713 16.8047C11.1686 16.8047 10.9658 16.7241 10.8034 16.5615L9.20113 14.98C7.59962 13.3784 7.59962 10.7827 9.20113 9.20117C10.8026 7.59961 13.3981 7.59961 14.9799 9.20117L16.5814 10.8027C16.9061 11.1274 16.9061 11.6343 16.5814 11.958C16.2566 12.2832 15.7497 12.2832 15.4258 11.958L13.8243 10.3569C13.3578 9.89014 12.7297 9.62646 12.0802 9.62646C11.4109 9.62646 10.8026 9.89014 10.3361 10.3569C9.36269 11.3301 9.36269 12.8911 10.3361 13.8442L11.9376 15.4453C12.2624 15.7705 12.2624 16.2773 11.9376 16.6011C11.7966 16.7241 11.5741 16.8047 11.3713 16.8047ZM17.9001 21.9751C16.8459 21.9751 15.8114 21.5698 15.0004 20.7793L13.3989 19.1777C13.0741 18.853 13.0741 18.3462 13.3989 18.022C13.7236 17.6973 14.2305 17.6973 14.5544 18.022L16.1559 19.6235C17.1294 20.5972 18.6905 20.5972 19.6433 19.6235C20.6167 18.6504 20.6167 17.0894 19.6433 16.1362L18.0418 14.5347C17.717 14.21 17.717 13.7031 18.0418 13.3794C18.3665 13.0547 18.8734 13.0547 19.1974 13.3794L20.7989 14.981C22.4004 16.5825 22.4004 19.1777 20.7989 20.7598C19.9886 21.5698 18.9542 21.9751 17.9001 21.9751ZM15.7298 16.8452C15.8921 17.0078 16.0949 17.0884 16.2977 17.0884C16.521 17.0884 16.7238 17.0073 16.8854 16.8647C17.2101 16.541 17.2101 16.0342 16.8854 15.7095L14.2701 13.0942C13.9462 12.7695 13.4393 12.7695 13.1145 13.0942C12.7898 13.418 12.7898 13.9248 13.1145 14.2495L15.7298 16.8452Z" fill="#C7CACC"/>
</svg>
