<svg width="14" height="14" viewBox="0 0 14 14" fill="none" xmlns="http://www.w3.org/2000/svg">
<path fill-rule="evenodd" clip-rule="evenodd" d="M9.17433 1.56741C10.1871 2.57522 10.7592 3.94534 10.7657 5.37649C10.768 6.81204 10.202 8.18997 9.19296 9.20706C8.18396 10.2246 6.81348 10.7989 5.3828 10.8037C3.95647 10.8037 2.58876 10.2359 1.57922 9.22415C0.570267 8.2134 0.00210571 6.84133 -0.000137329 5.41018C-0.00238037 3.97903 0.561417 2.60501 1.56775 1.59085C2.57408 0.576686 3.94022 0.00442004 5.36642 2.55128e-05C6.79262 -0.00436902 8.16205 0.559108 9.17433 1.56741ZM8.05707 8.06643C8.77403 7.35501 9.18036 6.38821 9.18637 5.37649C9.19026 4.36087 8.79105 3.38577 8.0779 2.66506C7.36417 1.94436 6.39514 1.53713 5.38286 1.53274C4.37498 1.53225 3.4081 1.93264 2.69496 2.64749C1.98128 3.36135 1.57877 4.33059 1.57658 5.34182C1.57384 6.35354 1.97144 7.32424 2.68182 8.04202C3.39163 8.7593 4.35637 9.16506 5.36427 9.16995C6.37215 9.17434 7.34065 8.77737 8.05707 8.06643ZM9.48225 10.6031L12.8856 14.0005L14 12.8789L10.5952 9.48196L9.48225 10.6031Z" fill="#C3C6C9"/>
</svg>
