<svg width="419" height="302" viewBox="0 0 419 302" fill="none" xmlns="http://www.w3.org/2000/svg">
<rect y="256.319" width="10.1576" height="10.1513" fill="white" fill-opacity="0.07"/>
<rect x="17.7758" y="256.319" width="10.1576" height="10.1513" fill="white" fill-opacity="0.07"/>
<rect x="35.5515" y="256.319" width="10.1576" height="10.1513" fill="white" fill-opacity="0.07"/>
<rect y="274.084" width="10.1576" height="10.1513" fill="white" fill-opacity="0.07"/>
<rect x="17.7758" y="274.084" width="10.1576" height="10.1513" fill="white" fill-opacity="0.07"/>
<rect x="35.5515" y="274.084" width="10.1576" height="10.1513" fill="white" fill-opacity="0.07"/>
<rect y="291.849" width="10.1576" height="10.1513" fill="white" fill-opacity="0.07"/>
<rect x="17.7758" y="291.849" width="10.1576" height="10.1513" fill="white" fill-opacity="0.07"/>
<rect x="35.5515" y="291.849" width="10.1576" height="10.1513" fill="white" fill-opacity="0.07"/>
<rect x="53.3273" y="256.319" width="10.1576" height="10.1513" fill="white" fill-opacity="0.07"/>
<rect x="71.103" y="256.319" width="10.1576" height="10.1513" fill="white" fill-opacity="0.07"/>
<rect x="88.8788" y="256.319" width="10.1576" height="10.1513" fill="white" fill-opacity="0.07"/>
<rect x="53.3273" y="274.084" width="10.1576" height="10.1513" fill="white" fill-opacity="0.07"/>
<rect x="71.103" y="274.084" width="10.1576" height="10.1513" fill="white" fill-opacity="0.07"/>
<rect x="88.8788" y="274.084" width="10.1576" height="10.1513" fill="white" fill-opacity="0.07"/>
<rect x="53.3273" y="291.849" width="10.1576" height="10.1513" fill="white" fill-opacity="0.07"/>
<rect x="71.103" y="291.849" width="10.1576" height="10.1513" fill="white" fill-opacity="0.07"/>
<rect x="88.8788" y="291.849" width="10.1576" height="10.1513" fill="white" fill-opacity="0.07"/>
<rect x="106.655" y="256.319" width="10.1576" height="10.1513" fill="white" fill-opacity="0.07"/>
<rect x="124.43" y="256.319" width="10.1576" height="10.1513" fill="white" fill-opacity="0.07"/>
<rect x="142.206" y="256.319" width="10.1576" height="10.1513" fill="white" fill-opacity="0.07"/>
<rect x="106.655" y="274.084" width="10.1576" height="10.1513" fill="white" fill-opacity="0.07"/>
<rect x="124.43" y="274.084" width="10.1576" height="10.1513" fill="white" fill-opacity="0.07"/>
<rect x="142.206" y="274.084" width="10.1576" height="10.1513" fill="white" fill-opacity="0.07"/>
<rect x="106.655" y="291.849" width="10.1576" height="10.1513" fill="white" fill-opacity="0.07"/>
<rect x="124.43" y="291.849" width="10.1576" height="10.1513" fill="white" fill-opacity="0.07"/>
<rect x="142.206" y="291.849" width="10.1576" height="10.1513" fill="white" fill-opacity="0.07"/>
<rect x="159.982" y="256.319" width="10.1576" height="10.1513" fill="white" fill-opacity="0.07"/>
<rect x="177.758" y="256.319" width="10.1576" height="10.1513" fill="white" fill-opacity="0.07"/>
<rect x="195.533" y="256.319" width="10.1576" height="10.1513" fill="white" fill-opacity="0.07"/>
<rect x="159.982" y="274.084" width="10.1576" height="10.1513" fill="white" fill-opacity="0.07"/>
<rect x="177.758" y="274.084" width="10.1576" height="10.1513" fill="white" fill-opacity="0.07"/>
<rect x="195.533" y="274.084" width="10.1576" height="10.1513" fill="white" fill-opacity="0.07"/>
<rect x="159.982" y="291.849" width="10.1576" height="10.1513" fill="white" fill-opacity="0.07"/>
<rect x="177.758" y="291.849" width="10.1576" height="10.1513" fill="white" fill-opacity="0.07"/>
<rect x="195.533" y="291.849" width="10.1576" height="10.1513" fill="white" fill-opacity="0.07"/>
<rect x="213.309" y="256.319" width="10.1576" height="10.1513" fill="white" fill-opacity="0.07"/>
<rect x="231.085" y="256.319" width="10.1576" height="10.1513" fill="white" fill-opacity="0.07"/>
<rect x="248.861" y="256.319" width="10.1576" height="10.1513" fill="white" fill-opacity="0.07"/>
<rect x="213.309" y="274.084" width="10.1576" height="10.1513" fill="white" fill-opacity="0.07"/>
<rect x="231.085" y="274.084" width="10.1576" height="10.1513" fill="white" fill-opacity="0.07"/>
<rect x="248.861" y="274.084" width="10.1576" height="10.1513" fill="white" fill-opacity="0.07"/>
<rect x="213.309" y="291.849" width="10.1576" height="10.1513" fill="white" fill-opacity="0.07"/>
<rect x="231.085" y="291.849" width="10.1576" height="10.1513" fill="white" fill-opacity="0.07"/>
<rect x="248.861" y="291.849" width="10.1576" height="10.1513" fill="white" fill-opacity="0.07"/>
<rect x="266.636" y="256.319" width="10.1576" height="10.1513" fill="white" fill-opacity="0.07"/>
<rect x="284.412" y="256.319" width="10.1576" height="10.1513" fill="white" fill-opacity="0.07"/>
<rect x="302.188" y="256.319" width="10.1576" height="10.1513" fill="white" fill-opacity="0.07"/>
<rect x="266.636" y="274.084" width="10.1576" height="10.1513" fill="white" fill-opacity="0.07"/>
<rect x="284.412" y="274.084" width="10.1576" height="10.1513" fill="white" fill-opacity="0.07"/>
<rect x="302.188" y="274.084" width="10.1576" height="10.1513" fill="white" fill-opacity="0.07"/>
<rect x="266.636" y="291.849" width="10.1576" height="10.1513" fill="white" fill-opacity="0.07"/>
<rect x="284.412" y="291.849" width="10.1576" height="10.1513" fill="white" fill-opacity="0.07"/>
<rect x="302.188" y="291.849" width="10.1576" height="10.1513" fill="white" fill-opacity="0.07"/>
<rect x="319.964" y="256.319" width="10.1576" height="10.1513" fill="white" fill-opacity="0.07"/>
<rect x="337.739" y="256.319" width="10.1576" height="10.1513" fill="white" fill-opacity="0.07"/>
<rect x="355.515" y="256.319" width="10.1576" height="10.1513" fill="white" fill-opacity="0.07"/>
<rect x="319.964" y="274.084" width="10.1576" height="10.1513" fill="white" fill-opacity="0.07"/>
<rect x="337.739" y="274.084" width="10.1576" height="10.1513" fill="white" fill-opacity="0.07"/>
<rect x="355.515" y="274.084" width="10.1576" height="10.1513" fill="white" fill-opacity="0.07"/>
<rect x="319.964" y="291.849" width="10.1576" height="10.1513" fill="white" fill-opacity="0.07"/>
<rect x="337.739" y="291.849" width="10.1576" height="10.1513" fill="white" fill-opacity="0.07"/>
<rect x="355.515" y="291.849" width="10.1576" height="10.1513" fill="white" fill-opacity="0.07"/>
<rect x="373.291" y="256.319" width="10.1576" height="10.1513" fill="white" fill-opacity="0.07"/>
<rect x="391.067" y="256.319" width="10.1576" height="10.1513" fill="white" fill-opacity="0.07"/>
<rect x="408.842" y="256.319" width="10.1576" height="10.1513" fill="white" fill-opacity="0.07"/>
<rect x="373.291" y="274.084" width="10.1576" height="10.1513" fill="white" fill-opacity="0.07"/>
<rect x="391.067" y="274.084" width="10.1576" height="10.1513" fill="white" fill-opacity="0.07"/>
<rect x="408.842" y="274.084" width="10.1576" height="10.1513" fill="white" fill-opacity="0.07"/>
<rect x="373.291" y="291.849" width="10.1576" height="10.1513" fill="white" fill-opacity="0.07"/>
<rect x="391.067" y="291.849" width="10.1576" height="10.1513" fill="white" fill-opacity="0.07"/>
<rect x="408.842" y="291.849" width="10.1576" height="10.1513" fill="white" fill-opacity="0.07"/>
<rect y="205.563" width="10.1576" height="10.1513" fill="white" fill-opacity="0.07"/>
<rect x="17.7758" y="205.563" width="10.1576" height="10.1513" fill="white" fill-opacity="0.07"/>
<rect x="35.5515" y="205.563" width="10.1576" height="10.1513" fill="white" fill-opacity="0.07"/>
<rect y="223.328" width="10.1576" height="10.1513" fill="white" fill-opacity="0.07"/>
<rect x="17.7758" y="223.328" width="10.1576" height="10.1513" fill="white" fill-opacity="0.07"/>
<rect x="35.5515" y="223.328" width="10.1576" height="10.1513" fill="white" fill-opacity="0.07"/>
<rect y="241.092" width="10.1576" height="10.1513" fill="white" fill-opacity="0.07"/>
<rect x="17.7758" y="241.092" width="10.1576" height="10.1513" fill="white" fill-opacity="0.07"/>
<rect x="35.5515" y="241.092" width="10.1576" height="10.1513" fill="white" fill-opacity="0.07"/>
<rect x="53.3273" y="205.563" width="10.1576" height="10.1513" fill="white" fill-opacity="0.07"/>
<rect x="71.103" y="205.563" width="10.1576" height="10.1513" fill="white" fill-opacity="0.07"/>
<rect x="88.8788" y="205.563" width="10.1576" height="10.1513" fill="white" fill-opacity="0.07"/>
<rect x="53.3273" y="223.328" width="10.1576" height="10.1513" fill="white" fill-opacity="0.07"/>
<rect x="71.103" y="223.328" width="10.1576" height="10.1513" fill="white" fill-opacity="0.07"/>
<rect x="88.8788" y="223.328" width="10.1576" height="10.1513" fill="white" fill-opacity="0.07"/>
<rect x="53.3273" y="241.092" width="10.1576" height="10.1513" fill="white" fill-opacity="0.07"/>
<rect x="71.103" y="241.092" width="10.1576" height="10.1513" fill="white" fill-opacity="0.07"/>
<rect x="88.8788" y="241.092" width="10.1576" height="10.1513" fill="white" fill-opacity="0.07"/>
<rect x="106.655" y="205.563" width="10.1576" height="10.1513" fill="white" fill-opacity="0.07"/>
<rect x="124.43" y="205.563" width="10.1576" height="10.1513" fill="white" fill-opacity="0.07"/>
<rect x="142.206" y="205.563" width="10.1576" height="10.1513" fill="white" fill-opacity="0.07"/>
<rect x="106.655" y="223.328" width="10.1576" height="10.1513" fill="white" fill-opacity="0.07"/>
<rect x="124.43" y="223.328" width="10.1576" height="10.1513" fill="white" fill-opacity="0.07"/>
<rect x="142.206" y="223.328" width="10.1576" height="10.1513" fill="white" fill-opacity="0.07"/>
<rect x="106.655" y="241.092" width="10.1576" height="10.1513" fill="white" fill-opacity="0.07"/>
<rect x="124.43" y="241.092" width="10.1576" height="10.1513" fill="white" fill-opacity="0.07"/>
<rect x="142.206" y="241.092" width="10.1576" height="10.1513" fill="white" fill-opacity="0.07"/>
<rect x="159.982" y="205.563" width="10.1576" height="10.1513" fill="white" fill-opacity="0.07"/>
<rect x="177.758" y="205.563" width="10.1576" height="10.1513" fill="white" fill-opacity="0.07"/>
<rect x="195.533" y="205.563" width="10.1576" height="10.1513" fill="white" fill-opacity="0.07"/>
<rect x="159.982" y="223.328" width="10.1576" height="10.1513" fill="white" fill-opacity="0.07"/>
<rect x="177.758" y="223.328" width="10.1576" height="10.1513" fill="white" fill-opacity="0.07"/>
<rect x="195.533" y="223.328" width="10.1576" height="10.1513" fill="white" fill-opacity="0.07"/>
<rect x="159.982" y="241.092" width="10.1576" height="10.1513" fill="white" fill-opacity="0.07"/>
<rect x="177.758" y="241.092" width="10.1576" height="10.1513" fill="white" fill-opacity="0.07"/>
<rect x="195.533" y="241.092" width="10.1576" height="10.1513" fill="white" fill-opacity="0.07"/>
<rect x="213.309" y="205.563" width="10.1576" height="10.1513" fill="white" fill-opacity="0.07"/>
<rect x="231.085" y="205.563" width="10.1576" height="10.1513" fill="white" fill-opacity="0.07"/>
<rect x="248.861" y="205.563" width="10.1576" height="10.1513" fill="white" fill-opacity="0.07"/>
<rect x="213.309" y="223.328" width="10.1576" height="10.1513" fill="white" fill-opacity="0.07"/>
<rect x="231.085" y="223.328" width="10.1576" height="10.1513" fill="white" fill-opacity="0.07"/>
<rect x="248.861" y="223.328" width="10.1576" height="10.1513" fill="white" fill-opacity="0.07"/>
<rect x="213.309" y="241.092" width="10.1576" height="10.1513" fill="white" fill-opacity="0.07"/>
<rect x="231.085" y="241.092" width="10.1576" height="10.1513" fill="white" fill-opacity="0.07"/>
<rect x="248.861" y="241.092" width="10.1576" height="10.1513" fill="white" fill-opacity="0.07"/>
<rect x="266.636" y="205.563" width="10.1576" height="10.1513" fill="white" fill-opacity="0.07"/>
<rect x="284.412" y="205.563" width="10.1576" height="10.1513" fill="white" fill-opacity="0.07"/>
<rect x="302.188" y="205.563" width="10.1576" height="10.1513" fill="white" fill-opacity="0.07"/>
<rect x="266.636" y="223.328" width="10.1576" height="10.1513" fill="white" fill-opacity="0.07"/>
<rect x="284.412" y="223.328" width="10.1576" height="10.1513" fill="white" fill-opacity="0.07"/>
<rect x="302.188" y="223.328" width="10.1576" height="10.1513" fill="white" fill-opacity="0.07"/>
<rect x="266.636" y="241.092" width="10.1576" height="10.1513" fill="white" fill-opacity="0.07"/>
<rect x="284.412" y="241.092" width="10.1576" height="10.1513" fill="white" fill-opacity="0.07"/>
<rect x="302.188" y="241.092" width="10.1576" height="10.1513" fill="white" fill-opacity="0.07"/>
<rect x="319.964" y="205.563" width="10.1576" height="10.1513" fill="white" fill-opacity="0.07"/>
<rect x="337.739" y="205.563" width="10.1576" height="10.1513" fill="white" fill-opacity="0.07"/>
<rect x="355.515" y="205.563" width="10.1576" height="10.1513" fill="white" fill-opacity="0.07"/>
<rect x="319.964" y="223.328" width="10.1576" height="10.1513" fill="white" fill-opacity="0.07"/>
<rect x="337.739" y="223.328" width="10.1576" height="10.1513" fill="white" fill-opacity="0.07"/>
<rect x="355.515" y="223.328" width="10.1576" height="10.1513" fill="white" fill-opacity="0.07"/>
<rect x="319.964" y="241.092" width="10.1576" height="10.1513" fill="white" fill-opacity="0.07"/>
<rect x="337.739" y="241.092" width="10.1576" height="10.1513" fill="white" fill-opacity="0.07"/>
<rect x="355.515" y="241.092" width="10.1576" height="10.1513" fill="white" fill-opacity="0.07"/>
<rect x="373.291" y="205.563" width="10.1576" height="10.1513" fill="white" fill-opacity="0.07"/>
<rect x="391.067" y="205.563" width="10.1576" height="10.1513" fill="white" fill-opacity="0.07"/>
<rect x="408.842" y="205.563" width="10.1576" height="10.1513" fill="white" fill-opacity="0.07"/>
<rect x="373.291" y="223.328" width="10.1576" height="10.1513" fill="white" fill-opacity="0.07"/>
<rect x="391.067" y="223.328" width="10.1576" height="10.1513" fill="white" fill-opacity="0.07"/>
<rect x="408.842" y="223.328" width="10.1576" height="10.1513" fill="white" fill-opacity="0.07"/>
<rect x="373.291" y="241.092" width="10.1576" height="10.1513" fill="white" fill-opacity="0.07"/>
<rect x="391.067" y="241.092" width="10.1576" height="10.1513" fill="white" fill-opacity="0.07"/>
<rect x="408.842" y="241.092" width="10.1576" height="10.1513" fill="white" fill-opacity="0.07"/>
<rect y="154.807" width="10.1576" height="10.1513" fill="white" fill-opacity="0.07"/>
<rect x="17.7758" y="154.807" width="10.1576" height="10.1513" fill="white" fill-opacity="0.07"/>
<rect x="35.5515" y="154.807" width="10.1576" height="10.1513" fill="white" fill-opacity="0.07"/>
<rect y="172.571" width="10.1576" height="10.1513" fill="white" fill-opacity="0.07"/>
<rect x="17.7758" y="172.571" width="10.1576" height="10.1513" fill="white" fill-opacity="0.07"/>
<rect x="35.5515" y="172.571" width="10.1576" height="10.1513" fill="white" fill-opacity="0.07"/>
<rect y="190.336" width="10.1576" height="10.1513" fill="white" fill-opacity="0.07"/>
<rect x="17.7758" y="190.336" width="10.1576" height="10.1513" fill="white" fill-opacity="0.07"/>
<rect x="35.5515" y="190.336" width="10.1576" height="10.1513" fill="white" fill-opacity="0.07"/>
<rect x="53.3273" y="154.807" width="10.1576" height="10.1513" fill="white" fill-opacity="0.07"/>
<rect x="71.103" y="154.807" width="10.1576" height="10.1513" fill="white" fill-opacity="0.07"/>
<rect x="88.8788" y="154.807" width="10.1576" height="10.1513" fill="white" fill-opacity="0.07"/>
<rect x="53.3273" y="172.571" width="10.1576" height="10.1513" fill="white" fill-opacity="0.07"/>
<rect x="71.103" y="172.571" width="10.1576" height="10.1513" fill="white" fill-opacity="0.07"/>
<rect x="88.8788" y="172.571" width="10.1576" height="10.1513" fill="white" fill-opacity="0.07"/>
<rect x="53.3273" y="190.336" width="10.1576" height="10.1513" fill="white" fill-opacity="0.07"/>
<rect x="71.103" y="190.336" width="10.1576" height="10.1513" fill="white" fill-opacity="0.07"/>
<rect x="88.8788" y="190.336" width="10.1576" height="10.1513" fill="white" fill-opacity="0.07"/>
<rect x="106.655" y="154.807" width="10.1576" height="10.1513" fill="white" fill-opacity="0.07"/>
<rect x="124.43" y="154.807" width="10.1576" height="10.1513" fill="white" fill-opacity="0.07"/>
<rect x="142.206" y="154.807" width="10.1576" height="10.1513" fill="white" fill-opacity="0.07"/>
<rect x="106.655" y="172.571" width="10.1576" height="10.1513" fill="white" fill-opacity="0.07"/>
<rect x="124.43" y="172.571" width="10.1576" height="10.1513" fill="white" fill-opacity="0.07"/>
<rect x="142.206" y="172.571" width="10.1576" height="10.1513" fill="white" fill-opacity="0.07"/>
<rect x="106.655" y="190.336" width="10.1576" height="10.1513" fill="white" fill-opacity="0.07"/>
<rect x="124.43" y="190.336" width="10.1576" height="10.1513" fill="white" fill-opacity="0.07"/>
<rect x="142.206" y="190.336" width="10.1576" height="10.1513" fill="white" fill-opacity="0.07"/>
<rect x="159.982" y="154.807" width="10.1576" height="10.1513" fill="white" fill-opacity="0.07"/>
<rect x="177.758" y="154.807" width="10.1576" height="10.1513" fill="white" fill-opacity="0.07"/>
<rect x="195.533" y="154.807" width="10.1576" height="10.1513" fill="white" fill-opacity="0.07"/>
<rect x="159.982" y="172.571" width="10.1576" height="10.1513" fill="white" fill-opacity="0.07"/>
<rect x="177.758" y="172.571" width="10.1576" height="10.1513" fill="white" fill-opacity="0.07"/>
<rect x="195.533" y="172.571" width="10.1576" height="10.1513" fill="white" fill-opacity="0.07"/>
<rect x="159.982" y="190.336" width="10.1576" height="10.1513" fill="white" fill-opacity="0.07"/>
<rect x="177.758" y="190.336" width="10.1576" height="10.1513" fill="white" fill-opacity="0.07"/>
<rect x="195.533" y="190.336" width="10.1576" height="10.1513" fill="white" fill-opacity="0.07"/>
<rect x="213.309" y="154.807" width="10.1576" height="10.1513" fill="white" fill-opacity="0.07"/>
<rect x="231.085" y="154.807" width="10.1576" height="10.1513" fill="white" fill-opacity="0.07"/>
<rect x="248.861" y="154.807" width="10.1576" height="10.1513" fill="white" fill-opacity="0.07"/>
<rect x="213.309" y="172.571" width="10.1576" height="10.1513" fill="white" fill-opacity="0.07"/>
<rect x="231.085" y="172.571" width="10.1576" height="10.1513" fill="white" fill-opacity="0.07"/>
<rect x="248.861" y="172.571" width="10.1576" height="10.1513" fill="white" fill-opacity="0.07"/>
<rect x="213.309" y="190.336" width="10.1576" height="10.1513" fill="white" fill-opacity="0.07"/>
<rect x="231.085" y="190.336" width="10.1576" height="10.1513" fill="white" fill-opacity="0.07"/>
<rect x="248.861" y="190.336" width="10.1576" height="10.1513" fill="white" fill-opacity="0.07"/>
<rect x="266.636" y="154.807" width="10.1576" height="10.1513" fill="white" fill-opacity="0.07"/>
<rect x="284.412" y="154.807" width="10.1576" height="10.1513" fill="white" fill-opacity="0.07"/>
<rect x="302.188" y="154.807" width="10.1576" height="10.1513" fill="white" fill-opacity="0.07"/>
<rect x="266.636" y="172.571" width="10.1576" height="10.1513" fill="white" fill-opacity="0.07"/>
<rect x="284.412" y="172.571" width="10.1576" height="10.1513" fill="white" fill-opacity="0.07"/>
<rect x="302.188" y="172.571" width="10.1576" height="10.1513" fill="white" fill-opacity="0.07"/>
<rect x="266.636" y="190.336" width="10.1576" height="10.1513" fill="white" fill-opacity="0.07"/>
<rect x="284.412" y="190.336" width="10.1576" height="10.1513" fill="white" fill-opacity="0.07"/>
<rect x="302.188" y="190.336" width="10.1576" height="10.1513" fill="white" fill-opacity="0.07"/>
<rect x="319.964" y="154.807" width="10.1576" height="10.1513" fill="white" fill-opacity="0.07"/>
<rect x="337.739" y="154.807" width="10.1576" height="10.1513" fill="white" fill-opacity="0.07"/>
<rect x="355.515" y="154.807" width="10.1576" height="10.1513" fill="white" fill-opacity="0.07"/>
<rect x="319.964" y="172.571" width="10.1576" height="10.1513" fill="white" fill-opacity="0.07"/>
<rect x="337.739" y="172.571" width="10.1576" height="10.1513" fill="white" fill-opacity="0.07"/>
<rect x="355.515" y="172.571" width="10.1576" height="10.1513" fill="white" fill-opacity="0.07"/>
<rect x="319.964" y="190.336" width="10.1576" height="10.1513" fill="white" fill-opacity="0.07"/>
<rect x="337.739" y="190.336" width="10.1576" height="10.1513" fill="white" fill-opacity="0.07"/>
<rect x="355.515" y="190.336" width="10.1576" height="10.1513" fill="white" fill-opacity="0.07"/>
<rect x="373.291" y="154.807" width="10.1576" height="10.1513" fill="white" fill-opacity="0.07"/>
<rect x="391.067" y="154.807" width="10.1576" height="10.1513" fill="white" fill-opacity="0.07"/>
<rect x="408.842" y="154.807" width="10.1576" height="10.1513" fill="white" fill-opacity="0.07"/>
<rect x="373.291" y="172.571" width="10.1576" height="10.1513" fill="white" fill-opacity="0.07"/>
<rect x="391.067" y="172.571" width="10.1576" height="10.1513" fill="white" fill-opacity="0.07"/>
<rect x="408.842" y="172.571" width="10.1576" height="10.1513" fill="white" fill-opacity="0.07"/>
<rect x="373.291" y="190.336" width="10.1576" height="10.1513" fill="white" fill-opacity="0.07"/>
<rect x="391.067" y="190.336" width="10.1576" height="10.1513" fill="white" fill-opacity="0.07"/>
<rect x="408.842" y="190.336" width="10.1576" height="10.1513" fill="white" fill-opacity="0.07"/>
<rect y="101.513" width="10.1576" height="10.1513" fill="white" fill-opacity="0.07"/>
<rect x="17.7758" y="101.513" width="10.1576" height="10.1513" fill="white" fill-opacity="0.07"/>
<rect x="35.5515" y="101.513" width="10.1576" height="10.1513" fill="white" fill-opacity="0.07"/>
<rect y="119.277" width="10.1576" height="10.1513" fill="white" fill-opacity="0.07"/>
<rect x="17.7758" y="119.277" width="10.1576" height="10.1513" fill="white" fill-opacity="0.07"/>
<rect x="35.5515" y="119.277" width="10.1576" height="10.1513" fill="white" fill-opacity="0.07"/>
<rect y="137.042" width="10.1576" height="10.1513" fill="white" fill-opacity="0.07"/>
<rect x="17.7758" y="137.042" width="10.1576" height="10.1513" fill="white" fill-opacity="0.07"/>
<rect x="35.5515" y="137.042" width="10.1576" height="10.1513" fill="white" fill-opacity="0.07"/>
<rect x="53.3273" y="101.513" width="10.1576" height="10.1513" fill="white" fill-opacity="0.07"/>
<rect x="71.103" y="101.513" width="10.1576" height="10.1513" fill="white" fill-opacity="0.07"/>
<rect x="88.8788" y="101.513" width="10.1576" height="10.1513" fill="white" fill-opacity="0.07"/>
<rect x="53.3273" y="119.277" width="10.1576" height="10.1513" fill="white" fill-opacity="0.07"/>
<rect x="71.103" y="119.277" width="10.1576" height="10.1513" fill="white" fill-opacity="0.07"/>
<rect x="88.8788" y="119.277" width="10.1576" height="10.1513" fill="white" fill-opacity="0.07"/>
<rect x="53.3273" y="137.042" width="10.1576" height="10.1513" fill="white" fill-opacity="0.07"/>
<rect x="71.103" y="137.042" width="10.1576" height="10.1513" fill="white" fill-opacity="0.07"/>
<rect x="88.8788" y="137.042" width="10.1576" height="10.1513" fill="white" fill-opacity="0.07"/>
<rect x="106.655" y="101.513" width="10.1576" height="10.1513" fill="white" fill-opacity="0.07"/>
<rect x="124.43" y="101.513" width="10.1576" height="10.1513" fill="white" fill-opacity="0.07"/>
<rect x="142.206" y="101.513" width="10.1576" height="10.1513" fill="white" fill-opacity="0.07"/>
<rect x="106.655" y="119.277" width="10.1576" height="10.1513" fill="white" fill-opacity="0.07"/>
<rect x="124.43" y="119.277" width="10.1576" height="10.1513" fill="white" fill-opacity="0.07"/>
<rect x="142.206" y="119.277" width="10.1576" height="10.1513" fill="white" fill-opacity="0.07"/>
<rect x="106.655" y="137.042" width="10.1576" height="10.1513" fill="white" fill-opacity="0.07"/>
<rect x="124.43" y="137.042" width="10.1576" height="10.1513" fill="white" fill-opacity="0.07"/>
<rect x="142.206" y="137.042" width="10.1576" height="10.1513" fill="white" fill-opacity="0.07"/>
<rect x="159.982" y="101.513" width="10.1576" height="10.1513" fill="white" fill-opacity="0.07"/>
<rect x="177.758" y="101.513" width="10.1576" height="10.1513" fill="white" fill-opacity="0.07"/>
<rect x="195.533" y="101.513" width="10.1576" height="10.1513" fill="white" fill-opacity="0.07"/>
<rect x="159.982" y="119.277" width="10.1576" height="10.1513" fill="white" fill-opacity="0.07"/>
<rect x="177.758" y="119.277" width="10.1576" height="10.1513" fill="white" fill-opacity="0.07"/>
<rect x="195.533" y="119.277" width="10.1576" height="10.1513" fill="white" fill-opacity="0.07"/>
<rect x="159.982" y="137.042" width="10.1576" height="10.1513" fill="white" fill-opacity="0.07"/>
<rect x="177.758" y="137.042" width="10.1576" height="10.1513" fill="white" fill-opacity="0.07"/>
<rect x="195.533" y="137.042" width="10.1576" height="10.1513" fill="white" fill-opacity="0.07"/>
<rect x="213.309" y="101.513" width="10.1576" height="10.1513" fill="white" fill-opacity="0.07"/>
<rect x="231.085" y="101.513" width="10.1576" height="10.1513" fill="white" fill-opacity="0.07"/>
<rect x="248.861" y="101.513" width="10.1576" height="10.1513" fill="white" fill-opacity="0.07"/>
<rect x="213.309" y="119.277" width="10.1576" height="10.1513" fill="white" fill-opacity="0.07"/>
<rect x="231.085" y="119.277" width="10.1576" height="10.1513" fill="white" fill-opacity="0.07"/>
<rect x="248.861" y="119.277" width="10.1576" height="10.1513" fill="white" fill-opacity="0.07"/>
<rect x="213.309" y="137.042" width="10.1576" height="10.1513" fill="white" fill-opacity="0.07"/>
<rect x="231.085" y="137.042" width="10.1576" height="10.1513" fill="white" fill-opacity="0.07"/>
<rect x="248.861" y="137.042" width="10.1576" height="10.1513" fill="white" fill-opacity="0.07"/>
<rect x="266.636" y="101.513" width="10.1576" height="10.1513" fill="white" fill-opacity="0.07"/>
<rect x="284.412" y="101.513" width="10.1576" height="10.1513" fill="white" fill-opacity="0.07"/>
<rect x="302.188" y="101.513" width="10.1576" height="10.1513" fill="white" fill-opacity="0.07"/>
<rect x="266.636" y="119.277" width="10.1576" height="10.1513" fill="white" fill-opacity="0.07"/>
<rect x="284.412" y="119.277" width="10.1576" height="10.1513" fill="white" fill-opacity="0.07"/>
<rect x="302.188" y="119.277" width="10.1576" height="10.1513" fill="white" fill-opacity="0.07"/>
<rect x="266.636" y="137.042" width="10.1576" height="10.1513" fill="white" fill-opacity="0.07"/>
<rect x="284.412" y="137.042" width="10.1576" height="10.1513" fill="white" fill-opacity="0.07"/>
<rect x="302.188" y="137.042" width="10.1576" height="10.1513" fill="white" fill-opacity="0.07"/>
<rect x="319.964" y="101.513" width="10.1576" height="10.1513" fill="white" fill-opacity="0.07"/>
<rect x="337.739" y="101.513" width="10.1576" height="10.1513" fill="white" fill-opacity="0.07"/>
<rect x="355.515" y="101.513" width="10.1576" height="10.1513" fill="white" fill-opacity="0.07"/>
<rect x="319.964" y="119.277" width="10.1576" height="10.1513" fill="white" fill-opacity="0.07"/>
<rect x="337.739" y="119.277" width="10.1576" height="10.1513" fill="white" fill-opacity="0.07"/>
<rect x="355.515" y="119.277" width="10.1576" height="10.1513" fill="white" fill-opacity="0.07"/>
<rect x="319.964" y="137.042" width="10.1576" height="10.1513" fill="white" fill-opacity="0.07"/>
<rect x="337.739" y="137.042" width="10.1576" height="10.1513" fill="white" fill-opacity="0.07"/>
<rect x="355.515" y="137.042" width="10.1576" height="10.1513" fill="white" fill-opacity="0.07"/>
<rect x="373.291" y="101.513" width="10.1576" height="10.1513" fill="white" fill-opacity="0.07"/>
<rect x="391.067" y="101.513" width="10.1576" height="10.1513" fill="white" fill-opacity="0.07"/>
<rect x="408.842" y="101.513" width="10.1576" height="10.1513" fill="white" fill-opacity="0.07"/>
<rect x="373.291" y="119.277" width="10.1576" height="10.1513" fill="white" fill-opacity="0.07"/>
<rect x="391.067" y="119.277" width="10.1576" height="10.1513" fill="white" fill-opacity="0.07"/>
<rect x="408.842" y="119.277" width="10.1576" height="10.1513" fill="white" fill-opacity="0.07"/>
<rect x="373.291" y="137.042" width="10.1576" height="10.1513" fill="white" fill-opacity="0.07"/>
<rect x="391.067" y="137.042" width="10.1576" height="10.1513" fill="white" fill-opacity="0.07"/>
<rect x="408.842" y="137.042" width="10.1576" height="10.1513" fill="white" fill-opacity="0.07"/>
<rect y="50.7563" width="10.1576" height="10.1513" fill="white" fill-opacity="0.07"/>
<rect x="17.7758" y="50.7563" width="10.1576" height="10.1513" fill="white" fill-opacity="0.07"/>
<rect x="35.5515" y="50.7563" width="10.1576" height="10.1513" fill="white" fill-opacity="0.07"/>
<rect y="68.521" width="10.1576" height="10.1513" fill="white" fill-opacity="0.07"/>
<rect x="17.7758" y="68.521" width="10.1576" height="10.1513" fill="white" fill-opacity="0.07"/>
<rect x="35.5515" y="68.521" width="10.1576" height="10.1513" fill="white" fill-opacity="0.07"/>
<rect y="86.2857" width="10.1576" height="10.1513" fill="white" fill-opacity="0.07"/>
<rect x="17.7758" y="86.2857" width="10.1576" height="10.1513" fill="white" fill-opacity="0.07"/>
<rect x="35.5515" y="86.2857" width="10.1576" height="10.1513" fill="white" fill-opacity="0.07"/>
<rect x="53.3273" y="50.7563" width="10.1576" height="10.1513" fill="white" fill-opacity="0.07"/>
<rect x="71.103" y="50.7563" width="10.1576" height="10.1513" fill="white" fill-opacity="0.07"/>
<rect x="88.8788" y="50.7563" width="10.1576" height="10.1513" fill="white" fill-opacity="0.07"/>
<rect x="53.3273" y="68.521" width="10.1576" height="10.1513" fill="white" fill-opacity="0.07"/>
<rect x="71.103" y="68.521" width="10.1576" height="10.1513" fill="white" fill-opacity="0.07"/>
<rect x="88.8788" y="68.521" width="10.1576" height="10.1513" fill="white" fill-opacity="0.07"/>
<rect x="53.3273" y="86.2857" width="10.1576" height="10.1513" fill="white" fill-opacity="0.07"/>
<rect x="71.103" y="86.2857" width="10.1576" height="10.1513" fill="white" fill-opacity="0.07"/>
<rect x="88.8788" y="86.2857" width="10.1576" height="10.1513" fill="white" fill-opacity="0.07"/>
<rect x="106.655" y="50.7563" width="10.1576" height="10.1513" fill="white" fill-opacity="0.07"/>
<rect x="124.43" y="50.7563" width="10.1576" height="10.1513" fill="white" fill-opacity="0.07"/>
<rect x="142.206" y="50.7563" width="10.1576" height="10.1513" fill="white" fill-opacity="0.07"/>
<rect x="106.655" y="68.521" width="10.1576" height="10.1513" fill="white" fill-opacity="0.07"/>
<rect x="124.43" y="68.521" width="10.1576" height="10.1513" fill="white" fill-opacity="0.07"/>
<rect x="142.206" y="68.521" width="10.1576" height="10.1513" fill="white" fill-opacity="0.07"/>
<rect x="106.655" y="86.2857" width="10.1576" height="10.1513" fill="white" fill-opacity="0.07"/>
<rect x="124.43" y="86.2857" width="10.1576" height="10.1513" fill="white" fill-opacity="0.07"/>
<rect x="142.206" y="86.2857" width="10.1576" height="10.1513" fill="white" fill-opacity="0.07"/>
<rect x="159.982" y="50.7563" width="10.1576" height="10.1513" fill="white" fill-opacity="0.07"/>
<rect x="177.758" y="50.7563" width="10.1576" height="10.1513" fill="white" fill-opacity="0.07"/>
<rect x="195.533" y="50.7563" width="10.1576" height="10.1513" fill="white" fill-opacity="0.07"/>
<rect x="159.982" y="68.521" width="10.1576" height="10.1513" fill="white" fill-opacity="0.07"/>
<rect x="177.758" y="68.521" width="10.1576" height="10.1513" fill="white" fill-opacity="0.07"/>
<rect x="195.533" y="68.521" width="10.1576" height="10.1513" fill="white" fill-opacity="0.07"/>
<rect x="159.982" y="86.2857" width="10.1576" height="10.1513" fill="white" fill-opacity="0.07"/>
<rect x="177.758" y="86.2857" width="10.1576" height="10.1513" fill="white" fill-opacity="0.07"/>
<rect x="195.533" y="86.2857" width="10.1576" height="10.1513" fill="white" fill-opacity="0.07"/>
<rect x="213.309" y="50.7563" width="10.1576" height="10.1513" fill="white" fill-opacity="0.07"/>
<rect x="231.085" y="50.7563" width="10.1576" height="10.1513" fill="white" fill-opacity="0.07"/>
<rect x="248.861" y="50.7563" width="10.1576" height="10.1513" fill="white" fill-opacity="0.07"/>
<rect x="213.309" y="68.521" width="10.1576" height="10.1513" fill="white" fill-opacity="0.07"/>
<rect x="231.085" y="68.521" width="10.1576" height="10.1513" fill="white" fill-opacity="0.07"/>
<rect x="248.861" y="68.521" width="10.1576" height="10.1513" fill="white" fill-opacity="0.07"/>
<rect x="213.309" y="86.2857" width="10.1576" height="10.1513" fill="white" fill-opacity="0.07"/>
<rect x="231.085" y="86.2857" width="10.1576" height="10.1513" fill="white" fill-opacity="0.07"/>
<rect x="248.861" y="86.2857" width="10.1576" height="10.1513" fill="white" fill-opacity="0.07"/>
<rect x="266.636" y="50.7563" width="10.1576" height="10.1513" fill="white" fill-opacity="0.07"/>
<rect x="284.412" y="50.7563" width="10.1576" height="10.1513" fill="white" fill-opacity="0.07"/>
<rect x="302.188" y="50.7563" width="10.1576" height="10.1513" fill="white" fill-opacity="0.07"/>
<rect x="266.636" y="68.521" width="10.1576" height="10.1513" fill="white" fill-opacity="0.07"/>
<rect x="284.412" y="68.521" width="10.1576" height="10.1513" fill="white" fill-opacity="0.07"/>
<rect x="302.188" y="68.521" width="10.1576" height="10.1513" fill="white" fill-opacity="0.07"/>
<rect x="266.636" y="86.2857" width="10.1576" height="10.1513" fill="white" fill-opacity="0.07"/>
<rect x="284.412" y="86.2857" width="10.1576" height="10.1513" fill="white" fill-opacity="0.07"/>
<rect x="302.188" y="86.2857" width="10.1576" height="10.1513" fill="white" fill-opacity="0.07"/>
<rect x="319.964" y="50.7563" width="10.1576" height="10.1513" fill="white" fill-opacity="0.07"/>
<rect x="337.739" y="50.7563" width="10.1576" height="10.1513" fill="white" fill-opacity="0.07"/>
<rect x="355.515" y="50.7563" width="10.1576" height="10.1513" fill="white" fill-opacity="0.07"/>
<rect x="319.964" y="68.521" width="10.1576" height="10.1513" fill="white" fill-opacity="0.07"/>
<rect x="337.739" y="68.521" width="10.1576" height="10.1513" fill="white" fill-opacity="0.07"/>
<rect x="355.515" y="68.521" width="10.1576" height="10.1513" fill="white" fill-opacity="0.07"/>
<rect x="319.964" y="86.2857" width="10.1576" height="10.1513" fill="white" fill-opacity="0.07"/>
<rect x="337.739" y="86.2857" width="10.1576" height="10.1513" fill="white" fill-opacity="0.07"/>
<rect x="355.515" y="86.2857" width="10.1576" height="10.1513" fill="white" fill-opacity="0.07"/>
<rect x="373.291" y="50.7563" width="10.1576" height="10.1513" fill="white" fill-opacity="0.07"/>
<rect x="391.067" y="50.7563" width="10.1576" height="10.1513" fill="white" fill-opacity="0.07"/>
<rect x="408.842" y="50.7563" width="10.1576" height="10.1513" fill="white" fill-opacity="0.07"/>
<rect x="373.291" y="68.521" width="10.1576" height="10.1513" fill="white" fill-opacity="0.07"/>
<rect x="391.067" y="68.521" width="10.1576" height="10.1513" fill="white" fill-opacity="0.07"/>
<rect x="408.842" y="68.521" width="10.1576" height="10.1513" fill="white" fill-opacity="0.07"/>
<rect x="373.291" y="86.2857" width="10.1576" height="10.1513" fill="white" fill-opacity="0.07"/>
<rect x="391.067" y="86.2857" width="10.1576" height="10.1513" fill="white" fill-opacity="0.07"/>
<rect x="408.842" y="86.2857" width="10.1576" height="10.1513" fill="white" fill-opacity="0.07"/>
<rect width="10.1576" height="10.1513" fill="white" fill-opacity="0.07"/>
<rect x="17.7758" width="10.1576" height="10.1513" fill="white" fill-opacity="0.07"/>
<rect x="35.5515" width="10.1576" height="10.1513" fill="white" fill-opacity="0.07"/>
<rect y="17.7647" width="10.1576" height="10.1513" fill="white" fill-opacity="0.07"/>
<rect x="17.7758" y="17.7647" width="10.1576" height="10.1513" fill="white" fill-opacity="0.07"/>
<rect x="35.5515" y="17.7647" width="10.1576" height="10.1513" fill="white" fill-opacity="0.07"/>
<rect y="35.5294" width="10.1576" height="10.1513" fill="white" fill-opacity="0.07"/>
<rect x="17.7758" y="35.5294" width="10.1576" height="10.1513" fill="white" fill-opacity="0.07"/>
<rect x="35.5515" y="35.5294" width="10.1576" height="10.1513" fill="white" fill-opacity="0.07"/>
<rect x="53.3273" width="10.1576" height="10.1513" fill="white" fill-opacity="0.07"/>
<rect x="71.103" width="10.1576" height="10.1513" fill="white" fill-opacity="0.07"/>
<rect x="88.8788" width="10.1576" height="10.1513" fill="white" fill-opacity="0.07"/>
<rect x="53.3273" y="17.7647" width="10.1576" height="10.1513" fill="white" fill-opacity="0.07"/>
<rect x="71.103" y="17.7647" width="10.1576" height="10.1513" fill="white" fill-opacity="0.07"/>
<rect x="88.8788" y="17.7647" width="10.1576" height="10.1513" fill="white" fill-opacity="0.07"/>
<rect x="53.3273" y="35.5294" width="10.1576" height="10.1513" fill="white" fill-opacity="0.07"/>
<rect x="71.103" y="35.5294" width="10.1576" height="10.1513" fill="white" fill-opacity="0.07"/>
<rect x="88.8788" y="35.5294" width="10.1576" height="10.1513" fill="white" fill-opacity="0.07"/>
<rect x="106.655" width="10.1576" height="10.1513" fill="white" fill-opacity="0.07"/>
<rect x="124.43" width="10.1576" height="10.1513" fill="white" fill-opacity="0.07"/>
<rect x="142.206" width="10.1576" height="10.1513" fill="white" fill-opacity="0.07"/>
<rect x="106.655" y="17.7647" width="10.1576" height="10.1513" fill="white" fill-opacity="0.07"/>
<rect x="124.43" y="17.7647" width="10.1576" height="10.1513" fill="white" fill-opacity="0.07"/>
<rect x="142.206" y="17.7647" width="10.1576" height="10.1513" fill="white" fill-opacity="0.07"/>
<rect x="106.655" y="35.5294" width="10.1576" height="10.1513" fill="white" fill-opacity="0.07"/>
<rect x="124.43" y="35.5294" width="10.1576" height="10.1513" fill="white" fill-opacity="0.07"/>
<rect x="142.206" y="35.5294" width="10.1576" height="10.1513" fill="white" fill-opacity="0.07"/>
<rect x="159.982" width="10.1576" height="10.1513" fill="white" fill-opacity="0.07"/>
<rect x="177.758" width="10.1576" height="10.1513" fill="white" fill-opacity="0.07"/>
<rect x="195.533" width="10.1576" height="10.1513" fill="white" fill-opacity="0.07"/>
<rect x="159.982" y="17.7647" width="10.1576" height="10.1513" fill="white" fill-opacity="0.07"/>
<rect x="177.758" y="17.7647" width="10.1576" height="10.1513" fill="white" fill-opacity="0.07"/>
<rect x="195.533" y="17.7647" width="10.1576" height="10.1513" fill="white" fill-opacity="0.07"/>
<rect x="159.982" y="35.5294" width="10.1576" height="10.1513" fill="white" fill-opacity="0.07"/>
<rect x="177.758" y="35.5294" width="10.1576" height="10.1513" fill="white" fill-opacity="0.07"/>
<rect x="195.533" y="35.5294" width="10.1576" height="10.1513" fill="white" fill-opacity="0.07"/>
<rect x="213.309" width="10.1576" height="10.1513" fill="white" fill-opacity="0.07"/>
<rect x="231.085" width="10.1576" height="10.1513" fill="white" fill-opacity="0.07"/>
<rect x="248.861" width="10.1576" height="10.1513" fill="white" fill-opacity="0.07"/>
<rect x="213.309" y="17.7647" width="10.1576" height="10.1513" fill="white" fill-opacity="0.07"/>
<rect x="231.085" y="17.7647" width="10.1576" height="10.1513" fill="white" fill-opacity="0.07"/>
<rect x="248.861" y="17.7647" width="10.1576" height="10.1513" fill="white" fill-opacity="0.07"/>
<rect x="213.309" y="35.5294" width="10.1576" height="10.1513" fill="white" fill-opacity="0.07"/>
<rect x="231.085" y="35.5294" width="10.1576" height="10.1513" fill="white" fill-opacity="0.07"/>
<rect x="248.861" y="35.5294" width="10.1576" height="10.1513" fill="white" fill-opacity="0.07"/>
<rect x="266.636" width="10.1576" height="10.1513" fill="white" fill-opacity="0.07"/>
<rect x="284.412" width="10.1576" height="10.1513" fill="white" fill-opacity="0.07"/>
<rect x="302.188" width="10.1576" height="10.1513" fill="white" fill-opacity="0.07"/>
<rect x="266.636" y="17.7647" width="10.1576" height="10.1513" fill="white" fill-opacity="0.07"/>
<rect x="284.412" y="17.7647" width="10.1576" height="10.1513" fill="white" fill-opacity="0.07"/>
<rect x="302.188" y="17.7647" width="10.1576" height="10.1513" fill="white" fill-opacity="0.07"/>
<rect x="266.636" y="35.5294" width="10.1576" height="10.1513" fill="white" fill-opacity="0.07"/>
<rect x="284.412" y="35.5294" width="10.1576" height="10.1513" fill="white" fill-opacity="0.07"/>
<rect x="302.188" y="35.5294" width="10.1576" height="10.1513" fill="white" fill-opacity="0.07"/>
<rect x="319.964" width="10.1576" height="10.1513" fill="white" fill-opacity="0.07"/>
<rect x="337.739" width="10.1576" height="10.1513" fill="white" fill-opacity="0.07"/>
<rect x="355.515" width="10.1576" height="10.1513" fill="white" fill-opacity="0.07"/>
<rect x="319.964" y="17.7647" width="10.1576" height="10.1513" fill="white" fill-opacity="0.07"/>
<rect x="337.739" y="17.7647" width="10.1576" height="10.1513" fill="white" fill-opacity="0.07"/>
<rect x="355.515" y="17.7647" width="10.1576" height="10.1513" fill="white" fill-opacity="0.07"/>
<rect x="319.964" y="35.5294" width="10.1576" height="10.1513" fill="white" fill-opacity="0.07"/>
<rect x="337.739" y="35.5294" width="10.1576" height="10.1513" fill="white" fill-opacity="0.07"/>
<rect x="355.515" y="35.5294" width="10.1576" height="10.1513" fill="white" fill-opacity="0.07"/>
<rect x="373.291" width="10.1576" height="10.1513" fill="white" fill-opacity="0.07"/>
<rect x="391.067" width="10.1576" height="10.1513" fill="white" fill-opacity="0.07"/>
<rect x="408.842" width="10.1576" height="10.1513" fill="white" fill-opacity="0.07"/>
<rect x="373.291" y="17.7647" width="10.1576" height="10.1513" fill="white" fill-opacity="0.07"/>
<rect x="391.067" y="17.7647" width="10.1576" height="10.1513" fill="white" fill-opacity="0.07"/>
<rect x="408.842" y="17.7647" width="10.1576" height="10.1513" fill="white" fill-opacity="0.07"/>
<rect x="373.291" y="35.5294" width="10.1576" height="10.1513" fill="white" fill-opacity="0.07"/>
<rect x="391.067" y="35.5294" width="10.1576" height="10.1513" fill="white" fill-opacity="0.07"/>
<rect x="408.842" y="35.5294" width="10.1576" height="10.1513" fill="white" fill-opacity="0.07"/>
</svg>
