<svg width="33" height="33" viewBox="0 0 33 33" fill="none" xmlns="http://www.w3.org/2000/svg">
<path d="M16.276 0C7.30143 0 0 7.40194 0 16.5C0 25.5974 7.30143 33 16.276 33C25.2498 33 32.5519 25.5974 32.5519 16.5C32.5519 7.40194 25.2511 0 16.276 0ZM20.3236 17.0809H17.6757C17.6757 21.3697 17.6757 26.6488 17.6757 26.6488H13.7519C13.7519 26.6488 13.7519 21.4209 13.7519 17.0809H11.8867V13.6993H13.7519V11.512C13.7519 9.94546 14.4862 7.49764 17.7117 7.49764L20.6193 7.50894V10.7915C20.6193 10.7915 18.8525 10.7915 18.5089 10.7915C18.1654 10.7915 17.677 10.9657 17.677 11.7127V13.6999H20.6665L20.3236 17.0809Z" fill="white"/>
</svg>
