<svg width="33" height="33" viewBox="0 0 33 33" fill="none" xmlns="http://www.w3.org/2000/svg">
<path d="M16.2753 19.8032C18.071 19.8032 19.5349 18.3217 19.5349 16.5C19.5349 15.7809 19.3028 15.1169 18.9187 14.5746C18.3267 13.7425 17.3642 13.1968 16.2772 13.1968C15.1896 13.1968 14.2278 13.7418 13.6345 14.5739C13.249 15.1162 13.0189 15.7802 13.0183 16.4993C13.0163 18.3211 14.4789 19.8032 16.2753 19.8032Z" fill="white"/>
<path d="M23.3906 12.4591V9.69024V9.27817L22.9821 9.2795L20.2522 9.28814L20.2627 12.4697L23.3906 12.4591Z" fill="white"/>
<path d="M16.276 0C7.30143 0 0 7.40194 0 16.5C0 25.5974 7.30143 33 16.276 33C25.2498 33 32.5519 25.5974 32.5519 16.5C32.5519 7.40194 25.2511 0 16.276 0ZM25.5324 14.5746V22.2577C25.5324 24.2588 23.9275 25.8852 21.9548 25.8852H10.5971C8.62378 25.8852 7.01952 24.2588 7.01952 22.2577V14.5746V10.7437C7.01952 8.74315 8.62378 7.11681 10.5971 7.11681H21.9541C23.9275 7.11681 25.5324 8.74315 25.5324 10.7437V14.5746Z" fill="white"/>
<path d="M21.3392 16.5C21.3392 19.3293 19.0682 21.6329 16.276 21.6329C13.4838 21.6329 11.2134 19.3293 11.2134 16.5C11.2134 15.8194 11.3472 15.1688 11.5858 14.5746H8.82245V22.2577C8.82245 23.2506 9.61769 24.0548 10.5965 24.0548H21.9535C22.931 24.0548 23.7275 23.2506 23.7275 22.2577V14.5746H20.9629C21.2035 15.1688 21.3392 15.8194 21.3392 16.5Z" fill="white"/>
</svg>
